<?xml version="1.0" encoding="UTF-8" standalone="no"?>
<!-- Created with Inkscape (http://www.inkscape.org/) -->

<svg
   width="142.71902mm"
   height="61.498066mm"
   viewBox="0 0 142.71902 61.498066"
   version="1.1"
   id="svg1"
   inkscape:version="1.4 (e7c3feb1, 2024-10-09)"
   sodipodi:docname="logo.svg"
   xmlns:inkscape="http://www.inkscape.org/namespaces/inkscape"
   xmlns:sodipodi="http://sodipodi.sourceforge.net/DTD/sodipodi-0.dtd"
   xmlns="http://www.w3.org/2000/svg"
   xmlns:svg="http://www.w3.org/2000/svg">
  <sodipodi:namedview
     id="namedview1"
     pagecolor="#ffffff"
     bordercolor="#000000"
     borderopacity="0.25"
     inkscape:showpageshadow="2"
     inkscape:pageopacity="0.0"
     inkscape:pagecheckerboard="0"
     inkscape:deskcolor="#d1d1d1"
     inkscape:document-units="mm"
     inkscape:zoom="0.86536255"
     inkscape:cx="245.56182"
     inkscape:cy="206.84972"
     inkscape:window-width="1512"
     inkscape:window-height="949"
     inkscape:window-x="0"
     inkscape:window-y="33"
     inkscape:window-maximized="0"
     inkscape:current-layer="layer1" />
  <defs
     id="defs1" />
  <g
     inkscape:label="Layer 1"
     inkscape:groupmode="layer"
     id="layer1"
     transform="translate(-35.205424,-121.98531)">
    <path
       style="font-size:8.46667px;font-family:'Patricia Wilcie Demo';-inkscape-font-specification:'Patricia Wilcie Demo, Normal';stroke-width:600"
       d="m 40.306707,163.14611 c 0.965202,-2.48922 1.778004,-5.0292 2.641602,-7.51842 0.812802,-2.53998 1.6764,-5.08002 2.7432,-7.67082 1.016004,1.0668 1.778004,2.08284 2.4384,3.2004 1.778004,2.69244 3.149604,5.58804 4.368804,8.5344 1.524,3.70842 2.794002,7.51842 3.911604,11.37924 0.25398,0.762 0.762,1.0668 1.625598,1.32078 0,-0.3048 0,-0.5586 -0.051,-0.81282 -0.10158,-1.26996 -0.25398,-2.48916 -0.40638,-3.75918 -0.40638,-4.572 -0.812802,-9.144 -1.168398,-13.716 -0.35562,-4.2672 -0.55878,-8.48358 -0.914406,-12.70002 -0.1524,-1.77798 -0.4572,-3.55596 -0.711198,-5.334 -0.20322,-1.42236 -0.9144,-2.53998 -2.387598,-3.25116 -1.2192,-0.6096 -1.625604,-0.6096 -2.489202,0.4062 -0.1524,0.2034 -0.35562,0.4062 -0.4572,0.6096 -0.50802,0.9144 -1.0668,1.8288 -1.524,2.7432 -1.3716,2.8956 -2.387604,5.84202 -3.403602,8.78838 -0.051,0.2538 -0.1524,0.4572 -0.25398,0.71124 -0.4572,-0.2538 -0.9144,-0.5082 -1.3716,-0.71124 -0.812796,-0.3558 -1.727196,-0.6096 -2.692398,-0.5082 -1.270002,0.1524 -2.235204,0.762 -3.048,1.62558 -0.965202,1.0668 -1.524006,2.286 -1.930404,3.55602 -0.051,0.1524 0,0.2538 0.051,0.4062 0.35562,-0.4062 0.50802,-0.762 0.762,-1.16838 0.660402,-1.16844 1.524,-2.18442 2.794002,-2.94642 1.777998,-1.0668 4.216398,-0.71118 5.334,0.3048 -1.625598,5.43558 -2.8956,10.92198 -3.860802,16.51002 z m 15.036804,0.2034 c -1.117596,-3.14958 -2.387598,-6.2484 -4.013196,-9.24558 -1.371606,-2.38758 -2.895606,-4.67358 -5.029206,-6.50238 -0.3048,-0.3048 -0.35562,-0.5082 -0.20322,-0.86364 1.2192,-3.25116 2.489196,-6.45156 4.165596,-9.55038 0.35562,-0.71118 0.812802,-1.42242 1.270002,-2.08278 0.1524,-0.2538 0.40638,-0.4572 0.711204,-0.81282 0.20322,0.5082 0.35562,0.9144 0.40638,1.27002 0.35562,2.23518 0.762,4.47036 1.015998,6.7056 0.55878,5.53716 1.0668,11.07438 1.574802,16.56078 0.1524,1.47318 0.3048,2.99718 0.4572,4.47042 0.051,0.2034 0,0.4572 0,0.71118 -0.051,0 -0.051,0 -0.10158,0 -0.10158,-0.2034 -0.20322,-0.4572 -0.25398,-0.66042 z m 15.900396,-0.71118 c -0.25398,-0.1524 -0.50802,-0.3558 -0.863598,-0.5586 -0.1524,0.4572 -0.3048,0.81276 -0.4572,1.16838 -0.35562,0.86358 -0.711198,1.72722 -1.117602,2.5908 -0.20322,0.3558 -0.4572,0.71118 -0.762,1.01598 -0.711198,0.66042 -1.320798,0.5586 -1.777998,-0.2538 -0.1524,-0.2034 -0.3048,-0.4062 -0.35562,-0.66042 -0.25398,-0.9144 -0.50802,-1.87956 -0.762,-2.84478 -0.10158,-0.3048 0.051,-0.6096 0.20322,-0.9144 2.489196,-5.1816 4.013202,-10.71882 4.521198,-16.51002 0.10158,-0.86358 -0.051,-1.8288 -0.10158,-2.69238 -0.051,-0.4572 -0.20322,-0.86358 -0.55878,-1.16838 -0.4572,-0.3048 -0.9144,-0.6096 -1.371606,-0.9144 -0.3048,-0.2034 -0.55878,-0.1524 -0.812796,0.1014 -0.20322,0.2034 -0.40638,0.4572 -0.50802,0.71118 -0.3048,0.6096 -0.6096,1.2192 -0.812802,1.87962 -1.168398,3.45438 -1.777998,6.95958 -1.930398,10.56642 -0.10158,1.6764 0,3.3528 -0.051,4.97838 0,0.3048 0,0.6096 -0.10158,0.9144 -0.6096,1.27002 -1.2192,2.5908 -1.879602,3.86082 -0.3048,0.5586 -0.711198,1.0668 -1.117602,1.57476 -0.1524,0.2034 -0.35562,0.3048 -0.6096,0.5082 -0.4572,-1.57482 0.1524,-3.30198 1.625604,-5.23242 -0.25398,0.1524 -0.55878,0.2538 -0.762,0.4572 -1.016004,0.81282 -1.6764,1.87962 -1.9812,3.14964 -0.40638,1.62558 -0.10158,1.8288 0.9144,2.53998 0.965196,0.6096 1.524,0.4062 2.184396,-0.1014 0.35562,-0.2538 0.660402,-0.5586 0.9144,-0.9144 0.4572,-0.5082 0.863604,-1.0668 1.270002,-1.62564 0.051,-0.1014 0.20322,-0.2034 0.25398,-0.3048 0.35562,0.71124 0.6096,1.42242 0.9144,2.08284 0.35562,0.66036 0.863598,1.16838 1.524,1.524 0.55878,0.3048 1.0668,0.3048 1.524,-0.048 0.40638,-0.3048 0.762,-0.66042 1.015998,-1.01598 0.812802,-1.11762 1.3716,-2.33682 1.8288,-3.60684 0,-0.048 0,-0.1524 0,-0.2538 z m -6.299202,-6.7056 c 0.35562,-4.1148 1.0668,-8.17878 2.692404,-11.98878 0.1524,0.2538 0.10158,0.5586 0.051,0.86358 -0.35562,1.9812 -0.660396,4.01322 -1.117596,5.99442 -0.3048,1.524 -0.812802,3.048 -1.270002,4.572 -0.051,0.2034 -0.1524,0.4062 -0.20322,0.6096 -0.051,-0.048 -0.10158,-0.048 -0.1524,-0.048 z m 15.189198,6.7056 c -0.660396,0.3558 -1.3716,0.66042 -2.032002,0.96522 -0.40638,0.1524 -0.863598,0.2034 -1.269996,0.2538 -0.1524,0 -0.40638,-0.1014 -0.4572,-0.2034 -0.20322,-0.5082 -0.6096,-0.71118 -1.016004,-1.01598 -0.965196,-0.66042 -1.015998,-0.6096 -1.8288,0.2034 -0.6096,0.66036 -1.2192,1.26996 -1.879602,1.93038 -0.10158,0.1014 -0.3048,0.2034 -0.4572,0.2538 0.50802,-1.8288 1.727202,-2.8956 3.556002,-3.5052 -1.8288,-0.048 -4.063998,1.3716 -4.673598,2.8956 -0.3048,0.66042 -0.20322,0.96522 0.40638,1.3716 0.10158,0.1014 0.25398,0.1524 0.35562,0.2538 0.50802,0.4572 1.117596,0.4062 1.727196,0.1524 0.660402,-0.3558 1.270002,-0.81282 1.778004,-1.3716 0.3048,-0.3558 0.660402,-0.71124 0.965202,-1.11762 0.40638,0.3048 0.812796,0.5082 1.168398,0.81282 0.55878,0.3558 1.117602,0.4062 1.727202,0.2034 1.168398,-0.3558 2.082798,-1.11756 3.048,-1.87956 -0.35562,-0.4572 -0.711198,-0.4062 -1.117602,-0.2034 z m 18.54203,-0.3558 c -0.1016,0.3048 -0.20322,0.5586 -0.3048,0.86364 -0.50802,1.26996 -0.9652,2.5908 -1.4732,3.91158 -0.1016,0.2538 -0.20322,0.5586 -0.55878,0.66042 -0.051,-0.3048 -0.1524,-0.5586 -0.1524,-0.81282 -0.1016,-0.96522 -0.1524,-1.9812 -0.20322,-2.94642 -0.051,-2.286 -0.051,-4.52118 -0.1016,-6.80718 0,-0.71118 -0.1524,-0.86358 -0.9652,-1.11762 -0.1524,0.4062 -0.3048,0.762 -0.40638,1.2192 -1.01598,4.21644 -1.62558,8.48364 -2.286,12.8016 -0.50802,3.09882 -1.01598,6.14682 -1.524,9.24564 -0.1524,0.81276 -0.40638,1.57482 -0.6096,2.38758 -0.051,0 -0.1016,0 -0.20322,0 0,-0.1014 -0.051,-0.2034 -0.051,-0.3048 -0.4572,-2.5908 -0.55878,-5.1816 -0.6604,-7.82322 -0.1524,-5.9436 0.1016,-11.8872 0.3048,-17.8308 0.051,-1.32078 0.051,-2.69238 0.051,-4.01316 0,-0.71124 -0.1524,-1.32084 -0.8636,-1.62564 -0.20322,-0.1014 -0.40638,-0.2538 -0.6096,-0.4062 -0.55877,-0.3558 -0.76199,-0.3558 -1.168388,0.2034 -0.10158,0.2034 -0.20322,0.3558 -0.3048,0.5586 -0.25398,0.66042 -0.6096,1.27002 -0.812802,1.93038 -0.812802,2.4384 -1.574802,4.82604 -2.336802,7.26444 -0.40638,1.26996 -0.812802,2.48916 -1.270002,3.75918 -0.10158,0.3048 -0.3048,0.5082 -0.40638,0.81282 -0.10158,-0.048 -0.1524,-0.048 -0.20322,-0.048 -0.1524,-0.81282 -0.35562,-1.57482 -0.50802,-2.38758 -0.1524,-1.11762 -0.25398,-2.23524 -0.40638,-3.3528 0,-0.2034 0,-0.4572 -0.3048,-0.5082 -0.051,0.1014 -0.10158,0.2034 -0.10158,0.2538 0,1.01604 -0.10158,2.03202 -0.051,3.048 0,0.9144 0.20322,1.77804 0.3048,2.69244 0.10158,0.5082 0.35562,0.9144 0.812802,1.11756 0.20322,0.1524 0.40638,0.3048 0.660402,0.4572 0.40638,0.2538 0.6096,0.2538 0.965196,-0.1524 0.25398,-0.3048 0.55878,-0.66036 0.711204,-1.0668 0.50802,-1.01598 0.965196,-2.08278 1.3716,-3.2004 0.812802,-2.23518 1.574802,-4.52118 2.387598,-6.80718 0.051,-0.2034 0.1524,-0.4062 0.25398,-0.6096 0.1524,0.2034 0.1524,0.4062 0.1524,0.6096 -0.051,2.1336 -0.10158,4.21638 -0.20322,6.34998 -0.1524,5.6388 -0.1524,11.2776 0.355612,16.9164 0.1524,1.27002 0.40638,2.54004 0.6096,3.86082 0.1524,0.9144 0.7112,1.524 1.524,1.9812 0.40638,0.2034 0.55878,0.1524 0.762,-0.2538 0.1524,-0.2538 0.3048,-0.5586 0.35562,-0.86358 0.1524,-0.6096 0.3048,-1.27002 0.40638,-1.87962 0.6096,-4.16562 1.1684,-8.33124 1.8288,-12.4968 0.40638,-2.7432 0.9144,-5.53722 1.3716,-8.28042 0,-0.2034 0.1016,-0.3558 0.1524,-0.5082 0.1016,1.3716 0.051,2.7432 0.1016,4.06404 0.1016,1.3716 0.25398,2.79396 0.40638,4.16556 0.051,0.5586 0.35562,0.96522 0.8636,1.2192 0.4572,0.2538 0.6096,0.2538 0.9144,-0.1524 0.25398,-0.3558 0.4572,-0.71118 0.6096,-1.11756 0.4572,-1.3716 0.9144,-2.7432 1.3208,-4.16562 0.1524,-0.5586 0.1524,-0.5586 -0.50802,-0.81282 z m 36.525297,-11.5824 c -0.1524,0.2538 -0.3048,0.6096 -0.40638,0.9144 -0.9144,2.33682 -1.93038,4.67364 -3.0988,6.90882 -1.3208,2.5908 -2.8448,5.08002 -4.826,7.26438 -1.0668,1.2192 -2.2352,2.286 -3.6576,3.09882 -0.8636,0.4572 -1.778,0.71118 -2.794,0.71118 -0.7112,0 -1.3208,-0.2538 -1.7272,-0.9144 -0.7112,-1.0668 -1.1684,-2.23518 -1.524,-3.45438 -0.7112,-3.048 -0.7112,-6.096 -0.3048,-9.144 0.50802,-4.21638 1.8288,-8.2296 3.7592,-12.0396 1.016,-1.93038 2.1844,-3.75918 3.6576,-5.38482 0.9144,-1.01598 1.9304,-1.93038 3.2004,-2.53998 0.9652,-0.5082 2.032,-0.81282 3.1496,-0.5586 0.051,0 0.1016,-0.048 0.20322,-0.048 -0.8128,-0.4062 -1.778,-0.5586 -2.6416,-0.4062 -1.6764,0.2538 -3.1496,1.01598 -4.4704,2.03196 -2.4384,1.93044 -4.2672,4.31802 -5.6388,7.06122 -2.4384,4.92762 -3.7084,10.15998 -3.6068,15.6972 0,1.9812 0.3048,3.91158 0.9652,5.7912 0.50802,1.42242 1.2192,2.7432 2.4892,3.6576 0.6604,0.4572 1.3208,0.9144 2.032,1.3716 1.016,0.6096 2.1844,0.81282 3.3528,0.5586 1.4224,-0.3048 2.6416,-1.01598 3.7592,-1.93038 1.524,-1.2192 2.794,-2.69238 3.9116,-4.2672 1.524,-2.1336 2.7432,-4.31802 3.8608,-6.65478 0.1524,-0.2034 0.25398,-0.4062 0.35562,-0.6096 0.1016,0.2538 0.1016,0.4062 0.1524,0.6096 0.1016,2.1336 0.20322,4.21638 0.40638,6.34998 0.1016,1.01598 0.40638,2.08278 0.66042,3.09882 0.1016,0.3048 0.35562,0.66036 0.66038,0.9144 0.35562,0.3048 0.762,0.5586 1.16842,0.81276 0.40638,0.2538 0.6096,0.2034 0.9144,-0.1524 0.20322,-0.2538 0.35562,-0.5082 0.50802,-0.81276 0.20322,-0.6096 0.40638,-1.2192 0.55878,-1.8288 0.8128,-3.048 0.9652,-6.19764 0.8128,-9.39804 -0.1016,-1.6764 -0.35562,-3.40356 -0.91442,-5.0292 -0.50802,-1.42236 -1.3208,-2.5908 -2.6924,-3.3528 -1.32078,-0.81276 -2.6416,-0.6096 -3.556,0.66042 0.25398,0.3558 0.50802,0.4062 0.9144,0.1524 0.6096,-0.3558 1.27,-0.5586 1.9812,-0.5082 0.40638,0 0.762,0.1524 0.9144,0.5586 0.25398,0.4572 0.50802,0.9144 0.6604,1.42236 0.4572,1.32084 0.6096,2.64162 0.66042,4.01322 0.1524,2.7432 0.051,5.4864 -0.3048,8.17878 -0.1016,1.01604 -0.3048,2.08284 -0.50802,3.09882 -0.051,0.2034 -0.051,0.5082 -0.35562,0.71118 -0.051,-0.6096 -0.1524,-1.0668 -0.20322,-1.57476 -0.3048,-3.6576 -0.1524,-7.26444 0.1016,-10.87122 0.051,-0.9144 0.1016,-1.8288 0.1524,-2.7432 0,-0.2538 0.051,-0.5082 -0.20322,-0.71118 -0.6604,-0.4572 -1.3208,-0.86364 -2.03202,-1.3716 -0.20322,0.2538 -0.35562,0.4062 -0.4572,0.66036 z m 15.95116,11.7348 c -0.1524,0.4572 -0.3048,0.762 -0.4062,1.11762 -0.3048,0.86358 -0.71118,1.72722 -1.32078,2.48922 -0.3558,0.4062 -0.762,0.762 -1.32084,0.86358 -0.86358,0.1524 -1.32078,-0.3558 -1.11756,-1.16838 0.81276,-2.84484 1.2192,-5.74044 0.96516,-8.6868 -0.048,-0.762 -0.2538,-1.524 -0.4062,-2.286 -0.1524,-0.5586 -0.5082,-0.96522 -0.96522,-1.27002 -0.4062,-0.2538 -0.81276,-0.5082 -1.2192,-0.81282 -0.81278,-0.66036 -1.26998,-0.2538 -1.62558,0.4572 -0.1016,0.2538 -0.20322,0.5082 -0.25398,0.762 -0.1016,0.66042 -0.25398,1.32084 -0.3048,1.9812 -0.1016,2.84484 0.3048,5.6388 1.52402,8.28042 0.1014,0.2034 0.1524,0.4572 0.1014,0.66042 -0.25398,0.9144 -0.55878,1.8288 -0.8636,2.7432 -0.051,0.2538 -0.3048,0.5082 -0.4572,0.762 -0.051,0 -0.1016,0 -0.1524,0 -0.762,-2.286 -0.71122,-4.572 -0.1016,-6.90882 -0.25398,0.3048 -0.4572,0.6096 -0.55878,0.9144 -0.6096,1.57482 -0.8128,3.25122 -0.7112,4.92762 0.1016,0.86358 0.40638,1.57476 1.27,1.9812 0.1524,0.1014 0.3048,0.2538 0.50802,0.3558 0.50802,0.3048 0.9144,0.3048 1.3716,-0.1524 0.4062,-0.4572 0.71118,-0.96516 1.0668,-1.47318 0.2034,-0.3558 0.3048,-0.762 0.5082,-1.16838 0.2538,0.1524 0.4062,0.2538 0.6096,0.3558 1.01598,0.66042 1.87956,0.5586 2.7432,-0.3048 1.01598,-1.0668 1.524,-2.4384 1.9812,-3.86076 -0.2538,-0.1524 -0.5082,-0.3048 -0.86364,-0.5586 z m -5.9436,-0.5082 c -0.5082,-2.08284 -0.5082,-4.1148 0.1014,-6.19764 0.3048,2.08284 0.1524,4.1148 -0.1014,6.19764 z m 17.93244,0.71118 c -0.2538,-0.1524 -0.5082,-0.3558 -0.86358,-0.5586 -0.1524,0.4572 -0.3048,0.81276 -0.4572,1.16838 -0.3558,0.86358 -0.71118,1.72722 -1.11762,2.5908 -0.2034,0.3558 -0.4572,0.71118 -0.762,1.01598 -0.71118,0.66042 -1.32078,0.5586 -1.77798,-0.2538 -0.1524,-0.2034 -0.3048,-0.4062 -0.3558,-0.66042 -0.2538,-0.9144 -0.5082,-1.87956 -0.762,-2.84478 -0.1014,-0.3048 0.048,-0.6096 0.2034,-0.9144 2.48922,-5.1816 4.01322,-10.71882 4.52118,-16.51002 0.1014,-0.86358 -0.048,-1.8288 -0.1014,-2.69238 -0.048,-0.4572 -0.2034,-0.86358 -0.5586,-1.16838 -0.4572,-0.3048 -0.9144,-0.6096 -1.3716,-0.9144 -0.3048,-0.2034 -0.5586,-0.1524 -0.81282,0.1014 -0.2034,0.2034 -0.4062,0.4572 -0.5082,0.71118 -0.3048,0.6096 -0.6096,1.2192 -0.81276,1.87962 -1.16844,3.45438 -1.77804,6.95958 -1.93044,10.56642 -0.1014,1.6764 0,3.3528 -0.048,4.97838 0,0.3048 0,0.6096 -0.1014,0.9144 -0.6096,1.27002 -1.2192,2.5908 -1.87956,3.86082 -0.3048,0.5586 -0.71124,1.0668 -1.11762,1.57476 -0.1524,0.2034 -0.3558,0.3048 -0.6096,0.5082 -0.4572,-1.57482 0.1524,-3.30198 1.62558,-5.23242 -0.2538,0.1524 -0.5586,0.2538 -0.762,0.4572 -1.01598,0.81282 -1.6764,1.87962 -1.9812,3.14964 -0.4062,1.62558 -0.1014,1.8288 0.9144,2.53998 0.96522,0.6096 1.524,0.4062 2.18442,-0.1014 0.3558,-0.2538 0.66042,-0.5586 0.9144,-0.9144 0.4572,-0.5082 0.86358,-1.0668 1.27002,-1.62564 0.048,-0.1014 0.2034,-0.2034 0.2538,-0.3048 0.3558,0.71124 0.6096,1.42242 0.9144,2.08284 0.3558,0.66036 0.86358,1.16838 1.524,1.524 0.5586,0.3048 1.0668,0.3048 1.524,-0.048 0.4062,-0.3048 0.762,-0.66042 1.01598,-1.01598 0.81282,-1.11762 1.3716,-2.33682 1.8288,-3.60684 0,-0.048 0,-0.1524 0,-0.2538 z m -6.29916,-6.7056 c 0.3558,-4.1148 1.0668,-8.17878 2.69238,-11.98878 0.1524,0.2538 0.1014,0.5586 0.048,0.86358 -0.3558,1.9812 -0.66042,4.01322 -1.11762,5.99442 -0.3048,1.524 -0.81282,3.048 -1.27002,4.572 -0.048,0.2034 -0.1524,0.4062 -0.2034,0.6096 -0.048,-0.048 -0.1014,-0.048 -0.1524,-0.048 z m 12.80154,6.14682 c -0.71118,0.5586 -1.3716,1.11756 -2.03196,1.62558 -0.81282,0.5586 -1.62564,1.0668 -2.5908,1.27002 -0.3558,0.1014 -0.71124,0.1014 -1.11762,0.1524 -0.3048,-0.6096 -0.2034,-1.16844 -0.2538,-1.72722 0,-0.4062 0.1524,-0.71118 0.4572,-0.96522 0.71118,-0.6096 1.26996,-1.3716 1.524,-2.286 0.2034,-0.5082 0.1524,-0.66036 -0.3048,-0.96516 -0.66042,-0.4572 -0.96522,-0.4572 -1.62564,0.1014 -0.96516,0.86358 -1.57476,1.9812 -1.77798,3.30198 -0.1524,1.2192 0.2034,2.286 1.3716,2.8956 0.2538,0.1524 0.4572,0.3558 0.71118,0.5082 0.5586,0.3558 1.11762,0.4062 1.72722,0.2034 0.3558,-0.1014 0.71118,-0.2538 1.01598,-0.4062 1.32084,-0.81276 2.4384,-1.93038 3.30204,-3.2004 0.048,-0.048 0.048,-0.1524 0.048,-0.2538 -0.1524,-0.1014 -0.3558,-0.2034 -0.4572,-0.2538 z m -4.82598,-1.9812 c -0.048,0.66036 -0.3558,1.2192 -0.81282,1.72716 0.048,-0.66036 0.3558,-1.26996 0.81282,-1.72716 z m 12.64926,2.33676 c -0.1014,0.3558 -0.2034,0.762 -0.3048,1.11762 -0.81282,3.70842 -1.62564,7.36602 -2.4384,11.02362 -0.4062,1.62558 -0.86364,3.14958 -1.32084,4.7244 -0.048,0.2538 -0.1014,0.5082 -0.4062,0.71118 -0.1014,-0.3048 -0.1524,-0.5586 -0.2538,-0.86358 -0.5082,-2.38764 -0.71124,-4.82604 -0.9144,-7.26444 -0.3558,-4.92756 -0.4572,-9.85518 -0.3558,-14.7828 0,-1.0668 0.1014,-2.1336 0.1524,-3.14958 0,0 0,0 0,0 0.1014,-0.2034 0.2538,-0.4572 0.3048,-0.66042 0.2034,-0.6096 0.4062,-1.26996 0.6096,-1.87956 1.9812,-6.2484 3.75918,-12.54762 4.67358,-19.05 0.3048,-2.1336 0.5586,-4.31802 0.4572,-6.45162 0,-0.66042 -0.1014,-1.27002 -0.2538,-1.87962 -0.048,-0.4572 -0.3558,-0.86358 -0.762,-1.11762 -0.3558,-0.2034 -0.71118,-0.4572 -1.0668,-0.66036 -0.5586,-0.4062 -0.86358,-0.3558 -1.32078,0.2034 -0.2034,0.2538 -0.4572,0.5586 -0.5586,0.9144 -0.3048,0.66042 -0.5586,1.32084 -0.81276,1.9812 -1.11762,3.40362 -1.6764,6.95964 -2.1336,10.51566 -0.762,5.58798 -1.11762,11.17596 -1.2192,16.764 -0.1524,6.80718 -0.048,13.5636 0.66036,20.37078 0.2034,1.93038 0.6096,3.91158 0.9144,5.84202 0.2034,1.32078 0.86364,2.286 2.08284,2.8956 0.71118,0.3558 1.01598,0.4062 1.3716,-0.3048 0.3558,-0.6096 0.6096,-1.27002 0.762,-1.93044 0.4572,-1.72716 0.86358,-3.45438 1.11756,-5.23236 0.4572,-2.8956 0.81282,-5.84202 1.2192,-8.73762 0.1014,-0.86358 0.1524,-1.6764 0.2538,-2.53998 0,-0.3048 0,-0.5586 -0.4572,-0.5586 z m -5.28324,-19.71036 c 0.3048,-3.14964 0.71124,-6.2484 1.16844,-9.39804 0.3558,-2.53998 0.86358,-5.08002 1.72716,-7.51842 0.1524,-0.3558 0.3048,-0.762 0.4572,-1.11756 0.048,0 0.1014,0 0.1524,0 0.048,0.2538 0.1014,0.5082 0.1014,0.762 0.1014,2.286 -0.048,4.52118 -0.3048,6.80718 -0.86364,7.1628 -2.1336,14.27484 -3.75924,21.28524 -0.048,0.1524 -0.048,0.2538 -0.1014,0.4062 -0.048,-0.3558 -0.1014,-0.66042 -0.1014,-0.96522 0.2034,-3.40356 0.3558,-6.858 0.66036,-10.26156 z"
       id="text2"
       aria-label="Adam Godel" />
  </g>
</svg>
